<svg id="背景_拷贝_Image" data-name="背景 拷贝 Image" xmlns="http://www.w3.org/2000/svg" viewBox="0 0 600.73 701.53"><title>timo_logo</title><path d="M960.63,1003.7s-8.52,49.11-14.61,0c0,0-15.42,35.31-20.29,3.65,0,0,8.52-2.84,6.9-13l-19.48-16.24s.41-11.77-8.93-36.94l15.42,23.95a69.34,69.34,0,0,0-.81-32.88l3.65,3.65s14.21-28.82-27.19-57.64v7.31s-13.39-12.18-15.42-26.38l8.93-2.84s-5.53-21.29-24-31.61c1.86.69,6.85.63,13.81-14.25,0,0,3-4.56-16.19-9.34v6.49s-20.34-.41-20.34-17.86c0,0,16.64,11.37,20.29,1.62.29-.76.41-30.85-32.88-17.86l5.68,4.46s-2,7.71-32.47-.81c-1.41-.39,27.19,19.08,27.19,19.08s-45.87-5.68-55.2-17.45c0,0,15.83,37.75-28.41,77.53,0,0,19.89-28.41,5.28-46.68,0,0,19.72,2,6.41-52.36,0,0,18.76-13.8-2.76-27.19,0,0,4.46,3.65,2,8.52,0,0-23.14-12.58-19.08-25.57,0,0-4.46,15-.41,23.14l-8.62-10.17s-9.75-18.61-8.86-55.84l-11.8,18.61s-2.38-34.57,12.69-55.84c0,0,14.18-8.86,8-36.34,0,0,39.89-64.7-8-116.11,0,0-16-16.84-3.55-40.77l-16.84,8.86s-17.58-10.6-13.29-31.91c0,0,22.16,7.09,26.59-5.32,0,0-94-86.86-203.86-5.32,0,0-19.5,4.43-15.07,38.11l-54.07,17.73-39,11.52a22.75,22.75,0,0,0-21.27,7.09l3.75,26.74s10.41,8.13,10.16,32.25c0,0,3.81,21.58,21.58,24.88l3-3s14.05,1,9.49,16.72l-7.75-6.88s0,7.75-11.19,9.47c0,0,28.4,14.63,10.33,32.7l69.37-12s24.93,1.77,38.49,14.63c.84,1.26,2.62,2.61,2.53,3.77s.79,2.95-.4,5.53-.49.74-1.09,3.09-37,105-37,105l-16.65,33.5a295,295,0,0,0-38,121.59L445,868.76q.54-.75,1.14-1.49c9.82-12.28,23.57-14.43,26.69-14.85L431,915.61a39.48,39.48,0,0,1,4.44,4.19c2.25,2.48,4.32,6.28,4.67,8.7,1.37,9.5-22.58,19.68-21.48,22.24.94,2.2,18.58-5.19,20.5-2.06,2.27,3.71-19.07,19.26-32.81,32.74-15.71,15.4-31.62,42-34.22,91.29H972.8v-64.94Z" transform="translate(-372.07 -371.17)"/></svg>